HIERARCHY
ROOT HipCenter
{
    OFFSET 0.0 0.0 -0.0
    CHANNELS 6 Xposition Yposition Zposition Zrotation Xrotation Yrotation
    JOINT Spine
    {
        OFFSET 0.0 30.009742736816406 0.0
        CHANNELS 3 Zrotation Xrotation Yrotation
        JOINT ShoulderCenter
        {
            OFFSET 0.0 22.634822845458984 0.0
            CHANNELS 3 Zrotation Xrotation Yrotation
            JOINT LeftShoulder
            {
                OFFSET 17.78877830505371 0.0 0.0
                CHANNELS 3 Zrotation Xrotation Yrotation
                JOINT LeftElbow
                {
                    OFFSET 22.883365631103516 0.0 0.0
                    CHANNELS 3 Zrotation Xrotation Yrotation
                    JOINT LeftWrist
                    {
                        OFFSET 23.07186508178711 0.0 0.0
                        CHANNELS 3 Zrotation Xrotation Yrotation
                        JOINT LeftHand
                        {
                            OFFSET 7.509000301361084 0.0 0.0
                            CHANNELS 3 Zrotation Xrotation Yrotation
                            End Site
                            {
                                OFFSET 3.0036001205444336 0.0 0.0
                            }
                        }
                    }
                }
            }
            JOINT RightShoulder
            {
                OFFSET -17.78877830505371 0.0 0.0
                CHANNELS 3 Zrotation Xrotation Yrotation
                JOINT RightElbow
                {
                    OFFSET -22.883365631103516 0.0 0.0
                    CHANNELS 3 Zrotation Xrotation Yrotation
                    JOINT RightWrist
                    {
                        OFFSET -23.07186508178711 0.0 0.0
                        CHANNELS 3 Zrotation Xrotation Yrotation
                        JOINT RightHand
                        {
                            OFFSET -7.509000301361084 0.0 0.0
                            CHANNELS 3 Zrotation Xrotation Yrotation
                            End Site
                            {
                                OFFSET -3.0036001205444336 0.0 0.0
                            }
                        }
                    }
                }
            }
            End Site
            {
                OFFSET 0.0 9.053929328918457 0.0
            }
        }
    }
    JOINT LeftHip
    {
        OFFSET 8.695545196533203 0.0 0.0
        CHANNELS 3 Zrotation Xrotation Yrotation
        JOINT LeftKnee
        {
            OFFSET 0.0 -28.689739227294922 0.0
            CHANNELS 3 Zrotation Xrotation Yrotation
            JOINT LeftAnkle
            {
                OFFSET 0.0 -25.37734603881836 0.0
                CHANNELS 3 Zrotation Xrotation Yrotation
                JOINT LeftFoot
                {
                    OFFSET 0.0 -11.288888931274414 0.0
                    CHANNELS 3 Zrotation Xrotation Yrotation
                    End Site
                    {
                        OFFSET 0.0 0.0 4.515555381774902
                    }
                }
            }
        }
    }
    JOINT RightHip
    {
        OFFSET -8.695545196533203 0.0 0.0
        CHANNELS 3 Zrotation Xrotation Yrotation
        JOINT RightKnee
        {
            OFFSET 0.0 -28.689739227294922 0.0
            CHANNELS 3 Zrotation Xrotation Yrotation
            JOINT RightAnkle
            {
                OFFSET 0.0 -25.37734603881836 0.0
                CHANNELS 3 Zrotation Xrotation Yrotation
                JOINT RightFoot
                {
                    OFFSET 0.0 -11.288888931274414 0.0
                    CHANNELS 3 Zrotation Xrotation Yrotation
                    End Site
                    {
                        OFFSET 0.0 0.0 4.515555381774902
                    }
                }
            }
        }
    }
}
MOTION
Frames: 6
Frame Time: 0.03333333333333333
-1.5581600666046143 -16.185211181640625 -400.83917236328125 41.39001634144739 31.581538204216482 147.1118190609364 6.023349487429079 -1.6459287320237388 -0.20230602207588383 1.3297399003665303e-06 -4.2928934429776554e-07 -3.700522331715535 -64.00161052594545 -11.301695832069589 -14.14765400012034 -3.254588435712176e-06 -5.101126435834361e-06 56.30823359486776 -179.99999573066287 64.32240076198455 -99.26759755838196 1.3241718894150476e-31 -6.3611093629270335e-15 2.3854160110976376e-15 -90.51445351055995 58.56208979779306 -99.0977641339213 -2.8960629354775377e-06 -2.75575082822476e-06 -66.48210514104215 -179.9999994496623 -1.1253801101236836 172.8722803134484 1.5902773407317584e-15 0.0 0.0 59.65399595948685 28.097334946086452 0.933511099213936 -32.08253950426481 12.762788300554485 -1.609783605592169 38.78214218789181 20.795054931173592 -20.089716202116882 1.5902773407317584e-15 0.0 0.0 44.00791184413443 78.28788784124937 -40.65088831941035 41.80610838001252 -51.75894925917355 29.551902614451738 -51.724901692724934 64.27074047265405 27.937453253499907 -1.5902773407317584e-15 -1.1034765745125397e-32 7.951386703658792e-16
-2.0465898513793945 -16.28207015991211 -400.12799072265625 38.86316424807727 34.18194629183866 -179.07170042868344 1.9828307697375833 -2.312760723016485 -0.16467595388245337 1.750926079137711e-06 -1.8772334932812823e-06 -34.938261900056936 -62.76001655842763 -4.669719926507644 -14.27627869563696 -1.3325971249154556e-07 1.4142514353261353e-06 51.247080041159236 -179.9999915295696 64.15783203015937 -105.49109010630549 3.1805546814635164e-15 0.0 0.0 -77.918916459316 46.920181433823494 -119.17904421555644 1.667983700698896e-06 -2.8582232914164877e-07 -56.49383968553924 -179.99999864703474 -2.878470275169481 171.88332549454992 2.385416011097638e-15 6.3611093629270335e-15 -6.3611093629270335e-15 61.41414148307517 -5.612640785613352 29.979778409946043 -100.7298562321154 60.64076857052945 65.64604546062564 150.94800701763182 -15.100953297317467 158.74611703945337 0.0 0.0 0.0 59.67566521165772 43.989253071602896 -75.55475833893897 55.70643133027585 -25.490347727863117 57.50046561870458 -122.50266316932803 32.93886342059829 45.619397619751474 1.5902773407317582e-15 -4.4139062980501586e-32 -3.1805546814635164e-15
-1.9148240089416504 -19.100431442260742 -400.0282897949219 32.04185693212722 36.73913290098389 164.3061482816635 3.079047235738483 -2.3006433274363367 -0.03873407430123941 9.436949309685649e-07 8.230841804200417e-07 -15.189324469481653 -65.18165617991001 11.04837505384516 -14.231502529258513 -2.689696462215938e-06 -1.1462487669631652e-07 48.904952487776065 -4.311092368464435e-05 86.89860608094097 65.06961404325973 0.0 0.0 -3.9756933518293955e-16 -57.34594071450053 9.2736522847855 -119.83690013012342 4.156489942472411e-06 3.06243427537902e-06 -63.7389321833319 179.99999923656796 43.796984009737784 141.3885820481041 -7.951386703658792e-16 0.0 0.0 55.30254032485823 15.49218901564494 15.918563870622412 -92.8249459696101 37.13449346236867 37.679829188422836 154.6375377113029 0.4250544389550383 -179.11794052255448 6.3611093629270335e-15 1.987846675914698e-15 -1.1034765745125397e-31 48.27733516709477 60.12662562109312 -57.554214745012814 51.42008977950386 -33.49833156628329 40.45065628929546 -121.20347947744101 21.347504727436075 57.15224623535121 -9.541664044390549e-15 2.648343778830095e-31 -3.1805546814635164e-15
-6.356184959411621 -16.301300048828125 -395.2583923339844 25.659422972146487 36.50939382987232 167.11586334493566 -1.3879826497781922 -2.2664528565437556 0.17638969660565212 1.0286704490957538e-07 -3.046309945919486e-07 -14.937704640127597 -63.64313040961774 14.478714714185587 -15.696689593342214 8.310300541251759e-07 -6.155627551166652e-07 53.345183826327656 -179.9999975716293 83.09920188806939 -122.61179221844412 -4.4139062980501586e-32 -6.361109362927035e-15 -7.951386703658794e-16 -57.1728518714131 7.964317533209923 -120.85209079421034 -4.279673621427424e-08 6.916255202222583e-08 -63.73881174418337 -179.99999604636773 40.65616313114451 130.750908759567 0.0 7.951386703658792e-16 0.0 43.510800142683536 16.797703827891585 14.770199249228805 -138.8025778610695 16.229032041035335 131.80846430779408 175.57250840776007 -24.76122352379628 125.96310970856273 7.156248033292914e-15 -1.4896933755919285e-31 -2.3854160110976376e-15 23.249163854701983 47.41183837005407 -44.33261421778449 16.0467399229529 -30.314960602523126 15.635612928380294 145.0445411320748 21.275658460547668 -176.26153731065284 0.0 -6.3611093629270335e-15 0.0
-6.145025253295898 -17.169649124145508 -395.0967102050781 24.08149999042637 37.03192999761912 166.90544568819865 1.7024196665296703 -2.9422534221795322 0.5504734341939308 3.916890219011537e-07 1.9169072958738124e-06 -12.470692417993783 -76.32549116451763 37.3917944122445 -7.598533076433973 2.5966653971805758e-06 3.828463960989464e-06 64.85334395137899 -4.797991556125849e-06 23.303423694225426 37.49829023907497 -4.373262687012335e-15 0.0 0.0 -52.99881508186685 10.929688190288605 -93.14162157558413 1.570698124334109e-06 3.2491430439774005e-06 -100.3377162824888 -179.9999978570565 -7.501318776137295 144.68648357548832 -3.578124016646457e-15 9.931289170612858e-32 -3.1805546814635168e-15 39.863108463703796 18.967960592906877 13.389832337329723 -142.7969783160265 8.150123497614725 155.98836244005903 -175.24624121863306 -18.86562006948489 144.19310979755335 -9.93923337957349e-16 -1.5902773407317584e-15 -7.951386703658792e-16 7.025511790137851 55.48493028120301 -33.382602950047776 45.21943529225404 -20.44048332745708 20.369741956407836 -59.39571555017644 61.33274432097343 14.437084928734125 0.0 0.0 -3.975693351829396e-15
-3.3032681941986084 -16.21324920654297 -390.68499755859375 22.986854389353024 37.85650296709021 167.8976321780078 0.3788774139909444 -1.6959947199816603 0.1530301328739262 -3.593382904171446e-07 -4.583735513990542e-06 -15.700005445260297 -69.67105620060228 37.85845821486089 -6.084563289795637 -6.222513665794286e-06 1.0759175396591248e-06 58.157939809911625 4.28120600443832e-06 74.56701265052354 57.94079624228935 -1.5902773407317584e-15 0.0 0.0 -45.66002165193565 -10.566375947876955 -122.08444658029896 -1.5196791582568922e-06 -2.7021694009008412e-06 -55.30955570433922 -179.99999535240084 65.24702879958018 166.3670565491378 -7.951386703658792e-16 -1.5902773407317584e-15 -1.1034765745125397e-32 43.34076377536617 17.890397826672306 13.935473526625396 -118.85680323407271 7.522839533709621 61.480001416336705 143.94553257544393 -12.32826536055598 22.2950781258717 -4.572047354603805e-15 -1.5902773407317584e-15 -7.951386703658792e-16 15.680949860871424 48.66677705211516 -38.67269219746906 26.65304368818701 -23.781014821467732 15.699759590500474 61.48302304189706 26.051500329929905 -96.88618751806347 6.3611093629270335e-15 1.7655625192200634e-31 3.1805546814635168e-15
